HIERARCHY
ROOT pelvis
{
	OFFSET 0.000000 0.000000 0.748829
	CHANNELS 6 Xposition Yposition Zposition Xrotation Yrotation Zrotation
	JOINT spine
	{
		OFFSET 0.000000 0.000000 0.000000
		CHANNELS 6 Xposition Yposition Zposition Xrotation Yrotation Zrotation
		JOINT spine.001
		{
			OFFSET 0.000000 -0.012711 0.242547
			CHANNELS 3 Xrotation Yrotation Zrotation
			JOINT neck
			{
				OFFSET 0.000000 0.029600 0.241069
				CHANNELS 6 Xposition Yposition Zposition Xrotation Yrotation Zrotation
				JOINT face
				{
					OFFSET 0.000000 0.003552 0.203504
					CHANNELS 6 Xposition Yposition Zposition Xrotation Yrotation Zrotation
					End Site
					{
						OFFSET 0.000000 -0.039915 -0.007358
					}
				}
			}
			JOINT shoulder.L
			{
				OFFSET 0.000000 0.029600 0.241069
				CHANNELS 6 Xposition Yposition Zposition Yrotation Xrotation Zrotation
				JOINT upper_arm.L
				{
					OFFSET 0.165745 0.000000 0.000000
					CHANNELS 6 Xposition Yposition Zposition Xrotation Yrotation Zrotation
					JOINT forearm.L
					{
						OFFSET 0.270234 0.000113 0.000934
						CHANNELS 6 Xposition Yposition Zposition Xrotation Yrotation Zrotation
						End Site
						{
							OFFSET 0.221268 -0.003759 -0.001285
						}
					}
				}
			}
			JOINT shoulder.R
			{
				OFFSET 0.000000 0.029600 0.241069
				CHANNELS 6 Xposition Yposition Zposition Yrotation Xrotation Zrotation
				JOINT upper_arm.R
				{
					OFFSET -0.165745 0.000000 0.000000
					CHANNELS 6 Xposition Yposition Zposition Xrotation Yrotation Zrotation
					JOINT forearm.R
					{
						OFFSET -0.269488 0.000113 0.000934
						CHANNELS 6 Xposition Yposition Zposition Xrotation Yrotation Zrotation
						End Site
						{
							OFFSET -0.227797 -0.003873 -0.001286
						}
					}
				}
			}
		}
	}
	JOINT pelvis.L
	{
		OFFSET 0.000000 0.000000 0.000000
		CHANNELS 6 Xposition Yposition Zposition Yrotation Xrotation Zrotation
		End Site
		{
			OFFSET 0.099755 0.000000 0.000000
		}
	}
	JOINT pelvis.R
	{
		OFFSET 0.000000 0.000000 0.000000
		CHANNELS 6 Xposition Yposition Zposition Yrotation Xrotation Zrotation
		End Site
		{
			OFFSET -0.099755 0.000000 0.000000
		}
	}
	JOINT thigh.L
	{
		OFFSET 0.099755 0.000000 0.000000
		CHANNELS 6 Xposition Yposition Zposition Xrotation Yrotation Zrotation
		JOINT shin.L
		{
			OFFSET 0.019080 0.000000 -0.364061
			CHANNELS 6 Xposition Yposition Zposition Xrotation Yrotation Zrotation
			JOINT foot.L
			{
				OFFSET 0.016961 0.000000 -0.323630
				CHANNELS 3 Xrotation Yrotation Zrotation
				End Site
				{
					OFFSET 0.014846 -0.151372 -0.063564
				}
			}
			JOINT heel.02.L
			{
				OFFSET 0.016961 0.000000 -0.323630
				CHANNELS 3 Xrotation Yrotation Zrotation
				End Site
				{
					OFFSET 0.079219 0.033575 -0.056125
				}
			}
		}
	}
	JOINT thigh.R
	{
		OFFSET -0.099755 0.000000 0.000000
		CHANNELS 6 Xposition Yposition Zposition Xrotation Yrotation Zrotation
		JOINT shin.R
		{
			OFFSET -0.018152 0.000000 -0.346363
			CHANNELS 6 Xposition Yposition Zposition Xrotation Yrotation Zrotation
			JOINT foot.R
			{
				OFFSET -0.017218 0.000000 -0.328535
				CHANNELS 3 Xrotation Yrotation Zrotation
				End Site
				{
					OFFSET -0.015855 -0.161660 -0.067884
				}
			}
			JOINT heel.02.R
			{
				OFFSET -0.017218 0.000000 -0.328535
				CHANNELS 3 Xrotation Yrotation Zrotation
				End Site
				{
					OFFSET -0.078862 0.033575 -0.068972
				}
			}
		}
	}
}
MOTION
Frames: 7
Frame Time: 0.041667
-0.014072 -0.029775 0.733126 -0.000000 0.000000 -9.500487 0.000000 0.000000 -0.000000 -9.754975 -0.704408 -0.097462 9.995488 0.252236 2.054742 0.000000 0.029600 0.241069 11.397221 2.005645 8.411161 -0.000000 0.003552 0.203504 -0.069466 0.000000 0.000001 0.000000 0.029599 0.241069 0.850266 0.000775 -0.104436 0.165745 0.000000 -0.000000 14.879939 79.208700 -17.962161 0.270234 0.000113 0.000934 1.254596 7.820338 -17.728743 0.000000 0.029599 0.241069 0.900458 0.000869 -0.110599 -0.165745 -0.000000 -0.000000 24.406458 -79.310005 29.257464 -0.269488 0.000113 0.000934 1.573321 -12.076790 13.549977 0.000000 0.000000 0.000000 -1.141572 -0.000000 0.000024 0.000000 0.000000 0.000000 -1.141572 -0.000000 0.000002 0.099735 0.000000 0.001987 9.971397 2.929047 0.268685 0.019080 -0.000000 -0.364061 -3.061002 -2.825201 -0.235655 -6.377324 -3.587989 6.008882 -22.636277 50.167367 45.111941 -0.099735 0.000000 -0.001987 7.897010 -3.948890 -0.142102 -0.018152 -0.000000 -0.346363 -4.159639 3.115695 0.330794 -5.083691 1.639928 -2.384282 -7.818567 -45.797002 -35.819305 
-0.013995 -0.030318 0.734743 -0.000000 0.000000 -9.341579 0.000000 0.000000 0.000000 -9.959441 -0.769744 -0.107903 9.996131 0.234699 1.911816 0.000000 0.029600 0.241069 11.494333 2.173302 8.491309 -0.000000 0.003552 0.203504 0.142136 -0.000000 -0.000001 0.000000 0.029600 0.241069 0.930250 0.000927 -0.114183 0.165745 0.000000 -0.000000 16.289419 78.756425 -19.803348 0.270234 0.000113 0.000934 1.271567 8.132577 -17.171259 0.000000 0.029600 0.241069 0.980401 0.001030 -0.120358 -0.165745 0.000000 -0.000000 24.396027 -79.456704 29.172889 -0.269488 0.000113 0.000934 1.461166 -11.758288 12.860686 0.000000 0.000000 0.000000 -1.617201 0.000000 0.000008 0.000000 0.000000 0.000000 -1.617201 0.000000 0.000000 0.099715 0.000000 0.002815 10.037280 2.990088 0.265105 0.019080 -0.000000 -0.364061 -3.192928 -2.930346 -0.248734 -6.802839 -3.647950 5.984726 -21.969076 49.744667 44.263963 -0.099715 0.000000 -0.002815 7.984391 -4.034394 -0.137700 -0.018152 0.000000 -0.346363 -4.124811 3.144538 0.329059 -4.932550 1.638179 -2.421291 -8.295372 -45.607806 -34.924622 
-0.013927 -0.030609 0.736018 -0.000000 0.000000 -9.238463 0.000000 0.000000 0.000000 -10.100998 -0.815587 -0.115359 9.996393 0.226794 1.847567 -0.000000 0.029600 0.241069 11.574720 2.271644 8.532911 0.000000 0.003552 0.203504 0.235312 -0.000000 0.000000 0.000000 0.029600 0.241069 0.971614 0.001011 -0.119313 0.165745 0.000000 -0.000000 17.424239 78.402437 -21.299602 0.270234 0.000113 0.000934 1.285328 8.421137 -16.667408 0.000000 0.029600 0.241069 1.021848 0.001118 -0.125475 -0.165745 0.000000 0.000000 24.381892 -79.560810 29.105133 -0.269488 0.000113 0.000934 1.380949 -11.504247 12.376339 0.000000 -0.000000 0.000000 -1.944645 0.000001 0.000047 0.000000 -0.000000 0.000000 -1.944645 -0.000000 -0.000001 0.099697 0.000000 0.003385 10.092003 3.051559 0.261125 0.019080 0.000000 -0.364061 -3.324957 -3.041989 -0.262248 -7.087716 -3.701095 5.994458 -21.545168 49.465121 43.708307 -0.099697 0.000000 -0.003385 8.042899 -4.084824 -0.135159 -0.018152 -0.000000 -0.346363 -4.083516 3.145430 0.325793 -4.931286 1.655642 -2.458478 -8.694154 -45.476933 -34.226467 
-0.013855 -0.030620 0.736845 -0.000000 0.000000 -9.201394 0.000000 0.000000 -0.000000 -10.169575 -0.839977 -0.119322 9.996247 0.229413 1.868829 0.000000 0.029600 0.241069 11.633838 2.290885 8.532764 -0.000000 0.003552 0.203504 0.199690 -0.000000 0.000000 0.000000 0.029599 0.241069 0.966838 0.001002 -0.118777 0.165745 0.000000 -0.000000 18.226852 78.180504 -22.355908 0.270234 0.000113 0.000934 1.298018 8.663939 -16.286502 0.000000 0.029599 0.241069 1.017030 0.001109 -0.124940 -0.165745 -0.000000 0.000000 24.371286 -79.604099 29.071467 -0.269488 0.000113 0.000934 1.337280 -11.341375 12.134844 0.000000 -0.000000 -0.000000 -2.099998 0.000001 0.000072 0.000000 -0.000000 -0.000000 -2.099998 -0.000000 0.000000 0.099688 0.000000 0.003655 10.137263 3.117360 0.256462 0.019080 0.000000 -0.364061 -3.452917 -3.149463 -0.275570 -7.243200 -3.757852 6.054759 -21.352455 49.333155 43.439976 -0.099688 -0.000000 -0.003655 8.059987 -4.093486 -0.134836 -0.018152 -0.000000 -0.346363 -4.024570 3.119628 0.320186 -5.098762 1.682969 -2.470682 -8.976731 -45.415328 -33.791794 
-0.013761 -0.030488 0.737349 -0.000000 0.000000 -9.204214 -0.000000 0.000000 0.000000 -10.196567 -0.852361 -0.121286 9.996023 0.236274 1.924744 0.000000 0.029600 0.241069 11.671770 2.268403 8.513212 0.000000 0.003552 0.203504 0.106925 0.000000 0.000000 -0.000000 0.029599 0.241069 0.933483 0.000936 -0.114657 0.165745 0.000000 0.000000 18.669885 78.063468 -22.939566 0.270234 0.000113 0.000934 1.312970 8.845482 -16.090695 -0.000000 0.029599 0.241069 0.983675 0.001037 -0.120828 -0.165745 -0.000000 0.000000 24.365691 -79.594988 29.069316 -0.269488 0.000113 0.000934 1.316335 -11.251092 12.032260 0.000000 0.000000 0.000000 -2.153886 -0.000001 -0.000038 0.000000 0.000000 0.000000 -2.153852 -0.000000 0.000000 0.099684 0.000000 0.003749 10.175903 3.184918 0.251424 0.019080 -0.000000 -0.364061 -3.553463 -3.224419 -0.285914 -7.376101 -3.830038 6.152820 -21.247960 49.254120 43.254389 -0.099684 -0.000000 -0.003749 8.035578 -4.083026 -0.135163 -0.018152 -0.000000 -0.346363 -3.932142 3.094170 0.311954 -5.330637 1.699321 -2.442416 -9.170400 -45.369327 -33.484705 
-0.013653 -0.030336 0.737700 -0.000000 0.000000 -9.224408 0.000000 -0.000000 0.000000 -10.207918 -0.860309 -0.122501 9.995847 0.242661 1.976792 -0.000000 0.029600 0.241069 11.682697 2.237023 8.488927 -0.000000 0.003552 0.203504 0.024260 0.000000 -0.000000 0.000000 0.029600 0.241069 0.889905 0.000849 -0.109258 0.165745 0.000000 -0.000000 18.807493 78.015917 -23.125680 0.270234 0.000113 0.000934 1.329633 8.955826 -16.077577 0.000000 0.029600 0.241069 0.940138 0.000947 -0.115434 -0.165745 -0.000000 -0.000000 24.352001 -79.556657 29.072007 -0.269488 0.000113 0.000934 1.307885 -11.212185 11.993642 0.000000 0.000000 0.000000 -2.171735 -0.000000 0.000007 0.000000 0.000000 0.000000 -2.171735 -0.000000 0.000001 0.099683 0.000000 0.003780 10.203202 3.245368 0.246699 0.019080 -0.000000 -0.364061 -3.593943 -3.250087 -0.289973 -7.549499 -3.914785 6.261159 -21.188659 49.186808 43.020165 -0.099683 0.000000 -0.003780 7.976916 -4.078216 -0.134508 -0.018152 -0.000000 -0.346363 -3.801907 3.090388 0.301490 -5.512488 1.699907 -2.394889 -9.321580 -45.312097 -33.200863 
-0.013547 -0.030238 0.737990 -0.000000 0.000000 -9.265070 0.000000 0.000000 -0.000000 -10.213562 -0.869511 -0.123858 9.995546 0.250570 2.041236 0.000000 0.029600 0.241069 11.668739 2.207579 8.454867 0.000000 0.003552 0.203504 -0.030271 -0.000000 -0.000000 -0.000000 0.029599 0.241069 0.850665 0.000777 -0.104453 0.165745 0.000000 -0.000000 18.762782 78.009708 -23.073788 0.270234 0.000113 0.000934 1.345277 9.010252 -16.170498 -0.000000 0.029599 0.241069 0.900816 0.000871 -0.110668 -0.165745 -0.000000 0.000000 24.295980 -79.521686 29.023175 -0.269488 0.000113 0.000934 1.311059 -11.213552 12.025605 0.000000 0.000000 0.000000 -2.176189 -0.000001 -0.000044 0.000000 0.000000 0.000000 -2.176189 0.000000 0.000001 0.099683 0.000000 0.003788 10.224003 3.299705 0.242341 0.019080 0.000000 -0.364061 -3.579666 -3.249327 -0.288798 -7.747983 -4.003855 6.368448 -21.234109 49.165283 42.774309 -0.099683 -0.000000 -0.003788 7.904361 -4.082476 -0.132986 -0.018152 0.000000 -0.346363 -3.662038 3.102537 0.290780 -5.612416 1.689219 -2.346038 -9.444387 -45.253633 -32.945438 
